<?xml version="1.0" encoding="iso-8859-1"?>
<!-- Uploaded to: SVG Repo, www.svgrepo.com, Generator: SVG Repo Mixer Tools -->
<svg height="800px" width="800px" version="1.1" id="Layer_1" xmlns="http://www.w3.org/2000/svg" xmlns:xlink="http://www.w3.org/1999/xlink" 
	 viewBox="0 0 512.002 512.002" xml:space="preserve">
<path style="fill:#8EC1ED;" d="M402.858,219.583l2.223-59.635C408.069,79.76,346.147,11.163,265.97,7.896
	c-80.356-3.273-148.017,59.362-151.01,139.663l-2.407,64.61l0,0c-0.233,6.251,2.027,12.341,6.283,16.926l17.447,18.797
	c5.979,6.442,16.05,6.818,22.493,0.838l14.293-13.266c6.442-5.979,16.513-5.605,22.493,0.838l13.266,14.293
	c5.979,6.442,16.05,6.818,22.493,0.838l14.293-13.266c6.442-5.979,16.513-5.605,22.493,0.838l13.266,14.293
	c5.979,6.442,16.05,6.818,22.493,0.838l14.293-13.266c6.442-5.979,16.513-5.605,22.493,0.838l13.266,14.293
	c5.979,6.442,16.05,6.818,22.493,0.838l18.797-17.447c4.586-4.256,7.293-10.159,7.526-16.411L402.858,219.583z"/>
<g>
	<path style="fill:#3C66B1;" d="M289.212,116.064c-0.993,26.637-32.259,47.096-32.259,47.096s-29.656-22.729-28.664-49.366
		S260.548,66.7,260.548,66.7S290.205,89.428,289.212,116.064z"/>
	<path style="fill:#3C66B1;" d="M345.652,72.682c9.799,10.557,5.67,30.321,5.67,30.321s-20.016,2.648-29.815-7.91
		s-5.67-30.321-5.67-30.321S335.854,62.125,345.652,72.682z"/>
	<path style="fill:#3C66B1;" d="M186.032,66.734c-10.557,9.799-7.91,29.815-7.91,29.815s19.764,4.129,30.321-5.67
		c10.557-9.799,7.91-29.815,7.91-29.815S196.59,56.935,186.032,66.734z"/>
</g>
<path d="M384.614,219.119c3.006-3.006,3.006-7.879,0-10.883c-3.007-3.006-7.879-3.007-10.885-0.001
	c-3.204,3.205-8.419,3.206-11.625,0l-13.789-13.789c-4.46-4.461-10.39-6.916-16.697-6.916c-6.307,0-12.237,2.457-16.697,6.915
	l-13.79,13.79c-3.205,3.205-8.42,3.205-11.624,0l-13.789-13.789c-4.46-4.461-10.39-6.916-16.697-6.916
	c-6.307,0-12.237,2.457-16.697,6.915l-13.79,13.79c-3.205,3.205-8.42,3.205-11.624,0l-13.79-13.789
	c-4.46-4.461-10.389-6.916-16.697-6.916c-6.307,0-12.237,2.457-16.697,6.915l-13.79,13.79c-3.205,3.205-8.42,3.205-11.624,0
	c-3.007-3.005-7.879-3.006-10.885,0.001c-3.006,3.006-3.005,7.879,0,10.883c9.206,9.205,24.185,9.206,33.392,0l13.79-13.79
	c1.553-1.553,3.616-2.407,5.812-2.407c2.196,0,4.26,0.855,5.812,2.408l13.79,13.79c4.603,4.602,10.649,6.905,16.696,6.905
	c6.046-0.001,12.094-2.303,16.697-6.905l13.79-13.79c1.553-1.553,3.616-2.407,5.812-2.407c2.196,0,4.26,0.855,5.812,2.408
	l13.79,13.79c9.206,9.205,24.185,9.206,33.392,0l13.79-13.79c1.553-1.553,3.616-2.407,5.812-2.407s4.26,0.855,5.812,2.408
	l13.79,13.79C360.428,228.326,375.408,228.325,384.614,219.119z"/>
<path d="M138.188,164.242c4.25,0,7.696-3.445,7.696-7.696c0-13.447,2.342-26.597,6.959-39.088c1.475-3.987-0.563-8.412-4.55-9.887
	c-3.99-1.476-8.414,0.563-9.888,4.55c-5.252,14.204-7.915,29.15-7.915,44.425C130.491,160.796,133.937,164.242,138.188,164.242z"/>
<path d="M221.56,49.637c0.783,0,1.581-0.12,2.366-0.375c11.161-3.604,22.821-5.43,34.664-5.43c0.145,0.001,0.285,0.009,0.434,0.001
	c4.238,0,7.681-3.428,7.696-7.67c0.015-4.25-3.419-7.709-7.67-7.723c-0.154,0-0.307-0.001-0.461-0.001
	c-13.449,0-26.702,2.077-39.393,6.176c-4.045,1.305-6.265,5.644-4.959,9.688C215.292,47.563,218.311,49.637,221.56,49.637z"/>
<path d="M388.182,323.941c-4.25,0-7.696,3.445-7.696,7.696s3.446,7.696,7.696,7.696c18.054,0,32.743,14.688,32.743,32.743
	c0,18.054-14.689,32.742-32.743,32.742c-18.054,0-32.742-14.688-32.742-32.742V262.62c8.682,3.885,19.241,2.297,26.358-4.82
	l18.134-18.135c5.909-5.91,9.163-13.766,9.163-22.122v-63.08c0-84.88-68.343-154.171-152.347-154.461C256.567,0,256.388,0,256.206,0
	c-40.741,0-79.05,15.824-107.917,44.593c-28.997,28.898-44.968,67.357-44.968,108.294v64.656c0,8.356,3.254,16.212,9.164,22.123
	L130.62,257.8c7.004,7.002,17.342,8.662,25.945,5.011v109.265c0,18.054-14.689,32.742-32.743,32.742s-32.743-14.688-32.743-32.742
	c0-18.055,14.689-32.743,32.743-32.743c4.25,0,7.696-3.445,7.696-7.696s-3.446-7.696-7.696-7.696
	c-26.542,0-48.135,21.594-48.135,48.135c0,26.542,21.593,48.134,48.135,48.134s48.135-21.593,48.135-48.134V249.855l5.845-5.845
	c1.553-1.553,3.616-2.407,5.812-2.407c2.195,0,4.26,0.855,5.812,2.408l13.79,13.79c4.365,4.365,10.031,6.634,15.762,6.859
	c8.37,23.4,7.767,48.72-1.811,71.842c-11.796,28.476-11.796,59.842,0,88.318c10.222,24.678,10.222,51.859,0,76.538
	c-1.626,3.927,0.238,8.429,4.165,10.055c0.963,0.4,1.961,0.588,2.942,0.588c3.02,0,5.886-1.79,7.113-4.753
	c11.796-28.476,11.796-59.842,0-88.318c-10.222-24.678-10.222-51.859,0-76.538c10.952-26.442,11.728-55.375,2.34-82.173
	c1.004-0.727,1.976-1.515,2.88-2.418l13.79-13.79c1.553-1.553,3.616-2.407,5.812-2.407c2.196,0,4.26,0.855,5.812,2.408l13.79,13.79
	c3.033,3.032,6.697,5.046,10.569,6.08c8.665,23.616,8.162,49.243-1.522,72.622c-11.796,28.476-11.796,59.842,0,88.318
	c10.222,24.678,10.222,51.859,0,76.538c-1.626,3.927,0.238,8.429,4.165,10.055c0.963,0.4,1.961,0.588,2.942,0.588
	c3.02,0,5.886-1.79,7.113-4.753c11.796-28.476,11.796-59.842,0-88.318c-10.222-24.678-10.222-51.859,0-76.538
	c10.629-25.662,11.675-53.671,3.146-79.798c2.527-1.139,4.903-2.72,6.977-4.794l13.79-13.79c1.553-1.553,3.616-2.407,5.812-2.407
	c2.195,0,4.26,0.855,5.812,2.408l5.43,5.43v122.634c0,26.542,21.593,48.134,48.134,48.134c26.542,0,48.135-21.593,48.135-48.134
	C436.316,345.536,414.724,323.941,388.182,323.941z M328.805,226.21c-6.308,0-12.237,2.457-16.697,6.915l-13.79,13.79
	c-3.205,3.205-8.42,3.205-11.624,0l-13.789-13.789c-4.46-4.461-10.39-6.916-16.697-6.916c-6.307,0-12.237,2.457-16.697,6.915
	l-13.79,13.79c-3.205,3.205-8.42,3.205-11.624,0l-13.789-13.789c-4.46-4.461-10.39-6.916-16.697-6.916s-12.237,2.457-16.697,6.915
	l-13.79,13.79c-3.205,3.205-8.42,3.205-11.624,0l-18.134-18.133c-3.002-3.003-4.656-6.993-4.656-11.239v-64.656
	c0-36.816,14.362-71.404,40.44-97.391c25.965-25.874,60.413-40.104,97.055-40.104c0.162,0,0.327,0,0.49,0.001
	c75.546,0.262,137.007,62.647,137.007,139.069v63.08c0,4.245-1.653,8.236-4.655,11.238l-18.134,18.134
	c-3.205,3.205-8.42,3.205-11.624,0l-13.789-13.789C341.042,228.667,335.112,226.21,328.805,226.21z"/>
<path d="M249.044,60.384c-1.377,0.976-33.728,24.258-33.728,54.542s32.351,53.566,33.728,54.542c1.333,0.945,2.892,1.418,4.45,1.418
	s3.117-0.473,4.45-1.418c1.377-0.976,33.728-24.258,33.728-54.542s-32.351-53.566-33.728-54.542
	C255.279,58.493,251.711,58.493,249.044,60.384z M276.282,114.925c0,16.661-15.062,31.761-22.786,38.409
	c-7.728-6.651-22.787-21.75-22.787-38.409c0-16.661,15.062-31.761,22.786-38.409C261.223,83.168,276.282,98.267,276.282,114.925z"/>
<path d="M337.824,107.834c4.663,0,8.134-0.535,9.026-0.687c3.222-0.549,5.745-3.072,6.294-6.295
	c0.416-2.439,3.694-24.19-8.939-36.824c0-0.001,0-0.001,0-0.001c-12.634-12.632-34.385-9.355-36.823-8.939
	c-3.222,0.549-5.746,3.072-6.294,6.294c-0.416,2.439-3.694,24.19,8.939,36.825C318.042,106.223,329.729,107.834,337.824,107.834z
	 M333.322,74.912c4.194,4.195,5.152,11.803,5.098,17.509c-5.722,0.016-13.317-0.905-17.509-5.097
	c-4.194-4.196-5.152-11.802-5.098-17.509C321.519,69.773,329.128,70.72,333.322,74.912z"/>
<path d="M170.947,107.147c0.892,0.151,4.362,0.687,9.026,0.687c8.095,0,19.781-1.61,27.797-9.625
	c12.634-12.635,9.355-34.386,8.939-36.825c-0.549-3.222-3.073-5.745-6.295-6.294c-2.437-0.413-24.189-3.693-36.823,8.939
	c0,0,0,0,0,0.001c-12.633,12.634-9.355,34.385-8.939,36.824C165.201,104.075,167.725,106.598,170.947,107.147z M184.475,74.913
	c4.194-4.194,11.778-5.122,17.506-5.099c0.044,5.669-0.91,13.324-5.095,17.509c-4.194,4.195-11.81,5.132-17.505,5.099
	C179.336,86.753,180.29,79.098,184.475,74.913z"/>
</svg>